<svg id="Group_3185" data-name="Group 3185" xmlns="http://www.w3.org/2000/svg" xmlns:xlink="http://www.w3.org/1999/xlink" width="37.805" height="37.456" viewBox="0 0 37.805 37.456">
  <defs>
    <clipPath id="clip-path">
      <rect id="Rectangle_2199" data-name="Rectangle 2199" width="37.805" height="37.456" fill="#8d2528"/>
    </clipPath>
  </defs>
  <g id="Group_3184" data-name="Group 3184" transform="translate(0 0)" clip-path="url(#clip-path)">
    <path id="Path_710" data-name="Path 710" d="M23.727,0a2.929,2.929,0,0,0-.38.063,5.726,5.726,0,0,0-.733.192c-.5.156-1.055.371-1.609.585s-1.095.429-1.524.585a4.387,4.387,0,0,1-.576.161h0a5.362,5.362,0,0,1-.581-.156c-.425-.156-.965-.375-1.519-.59S15.684.412,15.179.255a5.765,5.765,0,0,0-.724-.188,1.6,1.6,0,0,0-.925.009,1.666,1.666,0,0,0-.791.492,6.809,6.809,0,0,0-.509.554c-.34.407-.7.889-1.046,1.367s-.688.961-.961,1.318c-.139.183-.3.349-.4.451a5.667,5.667,0,0,1-.581.174c-.442.1-1.014.21-1.6.331s-1.166.241-1.676.38a6.464,6.464,0,0,0-.719.241A1.584,1.584,0,0,0,4.49,5.9a1.543,1.543,0,0,0-.4.831,5.4,5.4,0,0,0-.134.746C3.891,8,3.851,8.594,3.819,9.184s-.063,1.175-.1,1.627a5.18,5.18,0,0,1-.094.6v0a5.14,5.14,0,0,1-.389.456c-.317.322-.742.724-1.166,1.14s-.854.84-1.207,1.233a6.923,6.923,0,0,0-.474.581,1.735,1.735,0,0,0-.25,1.77,5.965,5.965,0,0,0,.29.688c.228.478.518,1.005.809,1.524s.585,1.023.8,1.421a4.857,4.857,0,0,1,.241.55,5.9,5.9,0,0,1-.076.6c-.094.447-.228,1.014-.362,1.591s-.268,1.157-.353,1.676a5.6,5.6,0,0,0-.085.751,1.568,1.568,0,0,0,.147.916,1.6,1.6,0,0,0,.594.711,6.676,6.676,0,0,0,.626.429c.447.277.974.559,1.5.836s1.05.55,1.443.769a5.114,5.114,0,0,1,.5.331,4.468,4.468,0,0,1,.259.541c.161.425.353.979.554,1.537s.4,1.117.612,1.6a6.07,6.07,0,0,0,.335.684,1.639,1.639,0,0,0,.621.688,1.532,1.532,0,0,0,.88.273,5.24,5.24,0,0,0,.755.027c.527-.009,1.126-.054,1.716-.1s1.175-.112,1.627-.143a4.858,4.858,0,0,1,.6.013h0a4.3,4.3,0,0,1,.509.317c.366.268.827.63,1.3.992s.947.724,1.385,1.014a5.473,5.473,0,0,0,.648.384,1.6,1.6,0,0,0,.894.25,1.577,1.577,0,0,0,.889-.246,5.475,5.475,0,0,0,.643-.389c.438-.295.921-.652,1.39-1.014s.934-.724,1.3-.992a5.142,5.142,0,0,1,.509-.322,5.213,5.213,0,0,1,.6,0c.456.027,1.032.076,1.622.13s1.193.094,1.72.1a5.935,5.935,0,0,0,.751-.018,1.643,1.643,0,0,0,.889-.277,1.61,1.61,0,0,0,.612-.693,6.4,6.4,0,0,0,.335-.679c.21-.483.416-1.037.612-1.6s.393-1.113.554-1.537a4.942,4.942,0,0,1,.259-.545,5.034,5.034,0,0,1,.5-.335c.4-.223.921-.492,1.443-.769s1.046-.554,1.5-.831a5.879,5.879,0,0,0,.621-.433,1.586,1.586,0,0,0,.6-.706,1.645,1.645,0,0,0,.147-.916,6.394,6.394,0,0,0-.089-.746c-.085-.523-.214-1.108-.349-1.685S35.7,21.812,35.6,21.37a5.9,5.9,0,0,1-.076-.6,4.858,4.858,0,0,1,.241-.55c.214-.4.5-.907.8-1.425s.581-1.046.809-1.519a6.431,6.431,0,0,0,.295-.693,1.639,1.639,0,0,0,.116-.916,1.6,1.6,0,0,0-.375-.849,5.589,5.589,0,0,0-.474-.59c-.353-.393-.778-.809-1.2-1.22s-.849-.822-1.171-1.144a4.945,4.945,0,0,1-.389-.465,5.313,5.313,0,0,1-.094-.59c-.036-.451-.058-1.037-.094-1.631s-.071-1.189-.139-1.711a5.522,5.522,0,0,0-.134-.746,1.578,1.578,0,0,0-.393-.831,1.65,1.65,0,0,0-.773-.518,6.86,6.86,0,0,0-.724-.232c-.5-.139-1.09-.259-1.671-.38s-1.157-.228-1.6-.326a5.41,5.41,0,0,1-.576-.179,5.089,5.089,0,0,1-.393-.447c-.277-.362-.621-.84-.97-1.323s-.7-.956-1.041-1.363a6.125,6.125,0,0,0-.514-.554,1.614,1.614,0,0,0-.786-.492A1.707,1.707,0,0,0,23.727,0Zm-9.5,2.444a2.283,2.283,0,0,1,.25.071c.4.121.929.322,1.47.532s1.086.425,1.564.6a2.971,2.971,0,0,0,2.784,0c.478-.174,1.028-.393,1.568-.6s1.072-.416,1.466-.541l.259-.067c.058.063.1.107.174.192.268.322.608.773.947,1.242s.684.952.992,1.358a3.1,3.1,0,0,0,.983,1.046,3.113,3.113,0,0,0,1.354.456c.5.112,1.077.228,1.644.344s1.122.228,1.524.34c.112.031.17.063.25.089a2.357,2.357,0,0,1,.045.259c.054.411.094.974.125,1.551s.067,1.166.107,1.68a3.087,3.087,0,0,0,.255,1.4,3.221,3.221,0,0,0,.9,1.122c.357.362.782.773,1.2,1.175s.818.809,1.095,1.117c.076.085.116.134.17.2-.031.076-.054.134-.1.241-.179.375-.456.876-.737,1.376s-.576,1.019-.822,1.466a2.972,2.972,0,0,0-.4,2.753c.107.5.246,1.072.38,1.636s.255,1.122.322,1.533c.018.116.018.174.027.259-.071.049-.121.085-.219.147-.353.219-.849.487-1.363.76s-1.032.545-1.479.8a3.11,3.11,0,0,0-1.175.818,3.175,3.175,0,0,0-.643,1.282c-.183.478-.38,1.032-.576,1.577s-.393,1.077-.559,1.457c-.045.107-.076.161-.112.237a2.3,2.3,0,0,1-.264.009c-.411,0-.983-.049-1.56-.1s-1.162-.112-1.671-.143a3.19,3.19,0,0,0-1.434.063,3.082,3.082,0,0,0-1.233.728c-.411.3-.876.666-1.336,1.019s-.912.693-1.256.925c-.1.067-.152.094-.228.139-.071-.045-.13-.076-.223-.139-.344-.232-.8-.572-1.26-.925s-.921-.715-1.332-1.019a3.134,3.134,0,0,0-1.238-.728,3.086,3.086,0,0,0-1.43-.049c-.509.031-1.1.085-1.676.134s-1.14.089-1.555.094c-.116,0-.174,0-.264,0-.036-.08-.076-.13-.121-.237-.165-.38-.362-.912-.554-1.457s-.389-1.1-.572-1.582A3.175,3.175,0,0,0,8.033,27.8a3.114,3.114,0,0,0-1.171-.822c-.447-.25-.979-.518-1.493-.786s-1.005-.541-1.363-.76c-.094-.063-.143-.1-.214-.147.013-.085.013-.147.031-.268.067-.407.192-.965.322-1.528s.273-1.135.375-1.636a3.1,3.1,0,0,0,.143-1.425A3.156,3.156,0,0,0,4.119,19.1c-.241-.451-.532-.961-.818-1.466s-.554-1-.737-1.376l-.107-.237c.054-.067.094-.121.174-.21.277-.308.679-.706,1.09-1.108s.84-.809,1.2-1.175a3.173,3.173,0,0,0,.894-1.122A3.156,3.156,0,0,0,6.072,11c.04-.509.076-1.108.112-1.685S6.25,8.174,6.3,7.763c.013-.116.031-.17.045-.255.085-.027.139-.054.25-.085.4-.107.956-.223,1.524-.34s1.153-.232,1.649-.344a2.97,2.97,0,0,0,2.342-1.5c.308-.407.648-.889.988-1.358s.679-.916.943-1.238c.076-.089.125-.134.183-.2m3.494,7.78v1.488a7.181,7.181,0,0,0-.988.214,4.8,4.8,0,0,0-1.488.679,3.887,3.887,0,0,0-1.171,1.341A3.711,3.711,0,0,0,14.16,17.6a3.7,3.7,0,0,0,1.546,1.354A21.371,21.371,0,0,0,19.12,20.02a10.1,10.1,0,0,1,2.149.711.982.982,0,0,1,.5.912,1.5,1.5,0,0,1-.621,1.207,3.17,3.17,0,0,1-2.042.536,3.282,3.282,0,0,1-2.145-.617,2.722,2.722,0,0,1-.907-1.805l-.036-.273H13.145l.071.375A6.056,6.056,0,0,0,15.071,24.7a5.387,5.387,0,0,0,2.645,1.014v1.524h2.368V25.753a6.5,6.5,0,0,0,1.89-.487h.009a4.44,4.44,0,0,0,1.975-1.609,4.042,4.042,0,0,0,.7-2.248,3.547,3.547,0,0,0-.585-2.056,3.6,3.6,0,0,0-1.582-1.269V18.1A25.139,25.139,0,0,0,19.2,17.053c-1.072-.29-1.734-.492-1.913-.554a1.716,1.716,0,0,1-.7-.478v-.009a.847.847,0,0,1-.206-.568,1.137,1.137,0,0,1,.527-.934,3.394,3.394,0,0,1,1.966-.433,2.751,2.751,0,0,1,1.779.5,2.008,2.008,0,0,1,.742,1.363l.04.264h2.815l-.058-.362a6.165,6.165,0,0,0-.84-2.431,3.954,3.954,0,0,0-1.854-1.3,6.922,6.922,0,0,0-1.417-.362V10.225Z" transform="translate(0.001 0)" fill="#8d2528"/>
  </g>
</svg>
