<svg xmlns="http://www.w3.org/2000/svg" xmlns:xlink="http://www.w3.org/1999/xlink" width="139.999" height="105.676" viewBox="0 0 139.999 105.676">
  <defs>
    <linearGradient id="linear-gradient" x1="0.537" y1="0.569" x2="1.281" y2="-0.271" gradientUnits="objectBoundingBox">
      <stop offset="0.245" stop-color="#8d2528"/>
      <stop offset="1" stop-color="#ae9931"/>
    </linearGradient>
    <linearGradient id="linear-gradient-2" x1="0.121" y1="1.073" x2="0.901" y2="0.164" xlink:href="#linear-gradient"/>
    <linearGradient id="linear-gradient-3" x1="-0.046" y1="1.107" x2="1.869" y2="-1.482" xlink:href="#linear-gradient"/>
    <linearGradient id="linear-gradient-4" x1="0.074" y1="1.186" x2="1.787" y2="-1.066" xlink:href="#linear-gradient"/>
  </defs>
  <g id="Group_246" data-name="Group 246" transform="translate(-3257.452 -4234.335)">
    <g id="Group_246-2" data-name="Group 246" transform="translate(3258.934 4234.335)">
      <path id="Path_369" data-name="Path 369" d="M3339.688,4326.887c-2.6-.29-8.25-4.342-11.724-6.079s-8.25-7.816-8.25-7.816-37.487.434-37.487,0c5.934-8.395,34.737-21.855,34.3-38.21,0-1.013,2.75-27.935-27.355-27.645s-27.789,29.382-27.789,29.382h15.632c-.145-6.948,1.737-14.764,12.592-14.764,5.645.434,9.408,5.5,9.119,12.3s-12.6,15.195-24.461,25.618c-15.486,13.606-14.619,27.211-14.619,27.211S3342.293,4327.176,3339.688,4326.887Z" transform="translate(-3259.639 -4238.464)" fill="url(#linear-gradient)"/>
      <path id="Path_370" data-name="Path 370" d="M3423.419,4249.666c-.1-1.255-4.052-2.6-6.658-.531a8.576,8.576,0,0,0-2.943,4.106c-2.412,5.615-10.3-1.549-3.281-4.2,1.737-.434,6.728-2.187,8.636-4.053,2.171-2.122,3.57-6.947.241-9.359-.241,1.737.772,5.548-5.307,6.417s-8.057.53-11.82,1.254a10.76,10.76,0,0,0-3.716,1.613c-4.9,4.538-8.081.124-5.131-1.136,2.594-.779,6.337-1.241,7.3-1.538,5.151-1.59,4.153-6.012,3.142-7.9.087.263.143,4.62-11.44,4.62-17.81.795-30.457,11.055-35.439,17.88a40.61,40.61,0,0,0-5.609,8.052c2.918-1.795,13.463-7.472,22.811-6.682,10.276.868,11.947,18.3,13.172,18.526,2.315.434.723-3.907.723-3.907s-2.895-8.54,1.158-16.79c2.287-4.657,8.974-4.054,8.974-4.054-3.184,5.066-.23,12.185,4.631,16.066,5.747,4.589,3.185,14.763,3.185,14.763,5.789.434,13.2,3.634,14.763,9.987,1.533,6.252-.844,14.193-1.246,15.458a40.537,40.537,0,0,0,.766-47.812C3419.1,4256.521,3417.66,4249.456,3423.419,4249.666Z" transform="translate(-3289.239 -4234.335)" fill="url(#linear-gradient-2)"/>
      <path id="Path_371" data-name="Path 371" d="M3357.792,4302.157c-6.81-2.459-9.973-9-11.347-13.233a40.756,40.756,0,0,0-.182,24.449,9.983,9.983,0,0,0,1.976.942c3.619,1.3,14.184,0,18.671-1.158s8.684-7.815,8.684-7.815S3368.213,4305.92,3357.792,4302.157Z" transform="translate(-3287.007 -4251.945)" fill="url(#linear-gradient-3)"/>
      <path id="Path_372" data-name="Path 372" d="M3406.064,4323.2c-10.71,2.605-15.487,15.2-16.5,17.947-.718,1.949-1.145,7.387-1.333,10.39a40.61,40.61,0,0,0,34.8-6.325q-.624-.168-1.331-.3C3409.972,4342.306,3406.209,4330.438,3406.064,4323.2Z" transform="translate(-3301.121 -4263.002)" fill="url(#linear-gradient-4)"/>
    </g>
    <g id="Group_247" data-name="Group 247" transform="translate(3257.452 4328.088)">
      <path id="Path_373" data-name="Path 373" d="M3262.482,4373.564l-.252,1.98-.363.009.059-1.535-1.533-.071-.716,5.824,1.035.08-.025.339h-2.7l.017-.339,1.011-.08.708-5.824-1.517.071-.371,1.516-.379.009.3-1.98Z" transform="translate(-3257.452 -4373.002)"/>
      <path id="Path_374" data-name="Path 374" d="M3267.164,4375.218a1.663,1.663,0,0,1,.99-.361.849.849,0,0,1,.7.3,1.606,1.606,0,0,1,.24.995,8.282,8.282,0,0,1-.177,1.329c-.005.035-.011.074-.017.116a.865.865,0,0,1-.025.125,1.849,1.849,0,0,0-.042.268,10.605,10.605,0,0,0-.186,1.239.54.54,0,0,0,.025.232.109.109,0,0,0,.1.081.331.331,0,0,0,.177-.058,2.049,2.049,0,0,0,.262-.209l.1.2a1.038,1.038,0,0,1-.169.209,1.28,1.28,0,0,1-.32.232.857.857,0,0,1-.4.1c-.31,0-.463-.16-.463-.481a3.973,3.973,0,0,1,.067-.629q.067-.4.076-.469c.005-.018.034-.185.084-.5q.11-.588.168-.985a5.1,5.1,0,0,0,.059-.753,1.012,1.012,0,0,0-.131-.6.493.493,0,0,0-.417-.169,1.412,1.412,0,0,0-.843.37,3.406,3.406,0,0,0-.784.9l-.413,3.229h-.64l.817-6.591-.472-.143.05-.3.969-.152.168.107-.413,3.282A3.542,3.542,0,0,1,3267.164,4375.218Z" transform="translate(-3259.948 -4372.734)"/>
      <path id="Path_375" data-name="Path 375" d="M3275.208,4380.729a1.927,1.927,0,0,1-1.032.295,1.505,1.505,0,0,1-.919-.268,1.582,1.582,0,0,1-.535-.7,2.511,2.511,0,0,1-.173-.94,3.991,3.991,0,0,1,.321-1.587,3.11,3.11,0,0,1,.872-1.2,1.882,1.882,0,0,1,1.226-.455,1.16,1.16,0,0,1,.868.3,1.08,1.08,0,0,1,.295.785,1.348,1.348,0,0,1-.505,1.065,3.38,3.38,0,0,1-1.188.651,4.173,4.173,0,0,1-1.18.228,1.835,1.835,0,0,0-.009.205,1.879,1.879,0,0,0,.253.99.843.843,0,0,0,.775.419,1.788,1.788,0,0,0,.75-.178,2.332,2.332,0,0,0,.716-.527l.16.3A2.266,2.266,0,0,1,3275.208,4380.729Zm-1.159-4.094a2.523,2.523,0,0,0-.535.861,3.624,3.624,0,0,0-.24,1,3.31,3.31,0,0,0,.99-.2,2.376,2.376,0,0,0,.855-.513,1.029,1.029,0,0,0,.345-.767.815.815,0,0,0-.177-.544.6.6,0,0,0-.472-.187A1.043,1.043,0,0,0,3274.05,4376.635Z" transform="translate(-3262.322 -4373.745)"/>
    </g>
    <g id="Group_248" data-name="Group 248" transform="translate(3324.987 4328.72)">
      <path id="Path_376" data-name="Path 376" d="M3360.719,4377.463a2.436,2.436,0,0,1,.421,1.524,3.808,3.808,0,0,1-.3,1.494,2.95,2.95,0,0,1-.834,1.151,1.849,1.849,0,0,1-1.208.441,1.472,1.472,0,0,1-1.205-.522,2.332,2.332,0,0,1-.447-1.476,3.825,3.825,0,0,1,.3-1.53,3.01,3.01,0,0,1,.842-1.177,1.856,1.856,0,0,1,1.221-.451A1.442,1.442,0,0,1,3360.719,4377.463Zm-2.169.293a2.626,2.626,0,0,0-.526,1.017,4.445,4.445,0,0,0-.178,1.24,2.174,2.174,0,0,0,.279,1.2.9.9,0,0,0,.8.418,1.052,1.052,0,0,0,.818-.4,2.614,2.614,0,0,0,.522-1,4.341,4.341,0,0,0,.177-1.222,2.38,2.38,0,0,0-.262-1.23.864.864,0,0,0-.792-.428A1.075,1.075,0,0,0,3358.55,4377.756Z" transform="translate(-3357.147 -4374.715)"/>
      <path id="Path_377" data-name="Path 377" d="M3364.807,4374.581a2.081,2.081,0,0,1,.6-.669,1.271,1.271,0,0,1,.733-.245,1.7,1.7,0,0,1,.657.107l-.185.6a.947.947,0,0,0-.6-.188.682.682,0,0,0-.581.334,2.1,2.1,0,0,0-.3.9l-.051.491h1.07l-.051.509h-1.079l-.6,4.79a3.075,3.075,0,0,1-.484,1.427,1.2,1.2,0,0,1-.973.544,2.964,2.964,0,0,1-.4-.01,1.667,1.667,0,0,1-.286-.044l.168-.607a1.394,1.394,0,0,0,.287.094,1.592,1.592,0,0,0,.379.058.445.445,0,0,0,.4-.3,2.76,2.76,0,0,0,.2-.856l.623-5.093h-.581l.068-.276.589-.214.059-.429A2.58,2.58,0,0,1,3364.807,4374.581Z" transform="translate(-3358.804 -4373.666)"/>
    </g>
    <g id="Group_249" data-name="Group 249" transform="translate(3272.938 4324.351)">
      <path id="Path_378" data-name="Path 378" d="M3282.856,4382.693q-.757-.185-1.747-.514a7.571,7.571,0,0,0-.8-.247l.155-3.659h1.01l.291,2.693a2.983,2.983,0,0,0,1.175.637,5.567,5.567,0,0,0,1.757.268,3.449,3.449,0,0,0,2.407-.761,2.69,2.69,0,0,0,.835-2.1,2.4,2.4,0,0,0-.437-1.459,3.756,3.756,0,0,0-1.126-1.007,20,20,0,0,0-1.912-.966,14.993,14.993,0,0,1-1.951-1.028,4.92,4.92,0,0,1-1.408-1.387,3.847,3.847,0,0,1-.02-4.1,3.817,3.817,0,0,1,1.621-1.367,5.584,5.584,0,0,1,2.378-.483,7.041,7.041,0,0,1,1.447.134q.631.134,1.6.421.524.165.621.185l-.116,3.371h-.971l-.349-2.548a2.548,2.548,0,0,0-.9-.4,5.081,5.081,0,0,0-1.427-.195,3.364,3.364,0,0,0-2.194.626,2.278,2.278,0,0,0-.757,1.86,2.341,2.341,0,0,0,.407,1.408,3.542,3.542,0,0,0,1.048.956q.641.39,1.98,1.048a24.827,24.827,0,0,1,2.184,1.2,5.135,5.135,0,0,1,1.379,1.315,3.244,3.244,0,0,1,.592,1.962,3.975,3.975,0,0,1-.6,2.086,4.442,4.442,0,0,1-1.747,1.613,5.561,5.561,0,0,1-2.679.616A7.45,7.45,0,0,1,3282.856,4382.693Z" transform="translate(-3280.313 -4367.217)"/>
      <path id="Path_379" data-name="Path 379" d="M3297.533,4374.951l-1.087-.157v-.619h1.644q.3,0,.592-.022t.428-.021q.707-.058,1.359-.058a3.892,3.892,0,0,1,2.711.755,2.985,2.985,0,0,1,.794,2.266,3.674,3.674,0,0,1-.516,1.971,3.381,3.381,0,0,1-1.4,1.273,4.366,4.366,0,0,1-1.971.439q-.435,0-.89-.022t-.55-.036v3.381l1.889.144v.619h-4.172v-.619l1.169-.13Zm2.582,5.122a2.7,2.7,0,0,0,1.917-.7,3,3,0,0,0,.747-2.281,2.226,2.226,0,0,0-.639-1.791,3.083,3.083,0,0,0-2.011-.54,8.611,8.611,0,0,0-.937.058c-.271.019-.453.028-.543.028v5.165A11.387,11.387,0,0,0,3300.115,4380.073Z" transform="translate(-3285.491 -4369.429)"/>
      <path id="Path_380" data-name="Path 380" d="M3310.681,4375l-1.318-.158v-.619h3.764v.619l-1.318.158v9.164l1.318.144v.6h-3.764v-.619l1.318-.129Z" transform="translate(-3289.684 -4369.477)"/>
      <path id="Path_381" data-name="Path 381" d="M3317.127,4384.237l1.169-.129v-9.178l-1.087-.173v-.59h1.657q.367,0,1.047-.058c.435-.038.757-.058.965-.058a4.354,4.354,0,0,1,2.772.691,2.614,2.614,0,0,1,.828,2.129,3.412,3.412,0,0,1-.55,1.9,2.656,2.656,0,0,1-1.488,1.136,2.8,2.8,0,0,1,.713.813q.361.568.89,1.575.463.877.741,1.317t.5.482l.57.158v.6h-1.59q-.217,0-.5-.489t-.8-1.583q-.557-1.193-.918-1.827a2.318,2.318,0,0,0-.714-.849q-1.657,0-1.915-.014v4.013l1.4.129v.619h-3.683Zm5.6-5.452a2.671,2.671,0,0,0,.543-1.812,2.269,2.269,0,0,0-.557-1.633,2.628,2.628,0,0,0-1.944-.583,7.628,7.628,0,0,0-.937.058c-.218.019-.358.028-.421.028v4.546q.245.015.978.015h.856A1.871,1.871,0,0,0,3322.726,4378.785Z" transform="translate(-3292.189 -4369.421)"/>
      <path id="Path_382" data-name="Path 382" d="M3332.547,4375l-1.318-.158v-.619h3.764v.619l-1.318.158v9.164l1.318.144v.6h-3.764v-.619l1.318-.129Z" transform="translate(-3296.738 -4369.477)"/>
      <path id="Path_383" data-name="Path 383" d="M3342.114,4374.87l-2.582.086-.435,2.921h-.748l.231-3.655h8.276l.15,3.655h-.72l-.38-2.921-2.623-.086v9.293l1.944.129v.619h-4.893v-.619l1.78-.129Z" transform="translate(-3299.035 -4369.477)"/>
    </g>
    <g id="Group_250" data-name="Group 250" transform="translate(3335.385 4324.351)">
      <path id="Path_384" data-name="Path 384" d="M3375.041,4382.693q-.757-.185-1.747-.514a7.525,7.525,0,0,0-.8-.247l.156-3.659h1.01l.291,2.693a2.977,2.977,0,0,0,1.174.637,5.567,5.567,0,0,0,1.757.268,3.451,3.451,0,0,0,2.407-.761,2.691,2.691,0,0,0,.834-2.1,2.4,2.4,0,0,0-.437-1.459,3.752,3.752,0,0,0-1.126-1.007,19.917,19.917,0,0,0-1.912-.966,15.068,15.068,0,0,1-1.951-1.028,4.916,4.916,0,0,1-1.407-1.387,3.843,3.843,0,0,1-.019-4.1,3.807,3.807,0,0,1,1.621-1.367,5.577,5.577,0,0,1,2.378-.483,7.035,7.035,0,0,1,1.446.134q.631.134,1.6.421.524.165.622.185l-.117,3.371h-.971l-.35-2.548a2.541,2.541,0,0,0-.9-.4,5.084,5.084,0,0,0-1.427-.195,3.362,3.362,0,0,0-2.194.626,2.276,2.276,0,0,0-.757,1.86,2.339,2.339,0,0,0,.407,1.408,3.541,3.541,0,0,0,1.048.956q.641.39,1.98,1.048a24.73,24.73,0,0,1,2.184,1.2,5.134,5.134,0,0,1,1.378,1.315,3.239,3.239,0,0,1,.592,1.962,3.975,3.975,0,0,1-.6,2.086,4.438,4.438,0,0,1-1.747,1.613,5.563,5.563,0,0,1-2.679.616A7.446,7.446,0,0,1,3375.041,4382.693Z" transform="translate(-3372.497 -4367.217)"/>
      <path id="Path_385" data-name="Path 385" d="M3389.95,4383.883a5.691,5.691,0,0,1-.9-3.546V4375l-1.019-.158v-.619h3.329v.619l-1.168.158v5.467a4.784,4.784,0,0,0,.713,2.978,2.45,2.45,0,0,0,2.018.878,2.25,2.25,0,0,0,1.97-.95,4.849,4.849,0,0,0,.666-2.791v-5.568l-1.128-.172v-.619h3.016v.619l-1.033.158v5.524a5.009,5.009,0,0,1-.985,3.374,3.3,3.3,0,0,1-2.616,1.129A3.423,3.423,0,0,1,3389.95,4383.883Z" transform="translate(-3377.507 -4369.477)"/>
      <path id="Path_386" data-name="Path 386" d="M3405.146,4384.324a4.327,4.327,0,0,1-1.591-1.942,7.285,7.285,0,0,1-.543-2.921,6.021,6.021,0,0,1,.639-2.805,4.783,4.783,0,0,1,1.739-1.921,4.573,4.573,0,0,1,2.46-.684,7.577,7.577,0,0,1,1.338.116q.645.115,1.039.215t.489.13l-.108,2.345h-.707l-.3-1.669a1.716,1.716,0,0,0-.734-.316,5.542,5.542,0,0,0-1.291-.129,2.808,2.808,0,0,0-1.685.539,3.549,3.549,0,0,0-1.175,1.576,6.447,6.447,0,0,0-.428,2.474,7.932,7.932,0,0,0,.373,2.49,4.1,4.1,0,0,0,1.135,1.819,2.7,2.7,0,0,0,1.876.684,4.2,4.2,0,0,0,1.209-.137,2.029,2.029,0,0,0,.734-.4l.544-1.352.666.1-.34,1.928a2.622,2.622,0,0,0-.788.187,7.453,7.453,0,0,1-.938.267,5.613,5.613,0,0,1-1.115.093A4.436,4.436,0,0,1,3405.146,4384.324Z" transform="translate(-3382.341 -4369.421)"/>
      <path id="Path_387" data-name="Path 387" d="M3418.165,4384.324a4.324,4.324,0,0,1-1.591-1.942,7.285,7.285,0,0,1-.543-2.921,6.027,6.027,0,0,1,.639-2.805,4.786,4.786,0,0,1,1.74-1.921,4.572,4.572,0,0,1,2.46-.684,7.575,7.575,0,0,1,1.338.116q.645.115,1.039.215t.489.13l-.108,2.345h-.707l-.3-1.669a1.719,1.719,0,0,0-.734-.316,5.545,5.545,0,0,0-1.291-.129,2.806,2.806,0,0,0-1.685.539,3.546,3.546,0,0,0-1.175,1.576,6.451,6.451,0,0,0-.428,2.474,7.932,7.932,0,0,0,.373,2.49,4.105,4.105,0,0,0,1.135,1.819,2.7,2.7,0,0,0,1.876.684,4.2,4.2,0,0,0,1.209-.137,2.025,2.025,0,0,0,.734-.4l.544-1.352.666.1-.34,1.928a2.625,2.625,0,0,0-.788.187,7.438,7.438,0,0,1-.937.267,5.612,5.612,0,0,1-1.114.093A4.438,4.438,0,0,1,3418.165,4384.324Z" transform="translate(-3386.541 -4369.421)"/>
      <path id="Path_388" data-name="Path 388" d="M3430.5,4375l-1.141-.158v-.619h6.727l.19,2.115h-.652l-.367-1.381-3.642-.072v4.187l2.5-.043.177-1.193h.679v3.179h-.679l-.177-1.223-2.5-.043v4.431l4.159-.115.693-1.8.652.216-.421,2.431h-7.365v-.619l1.168-.129Z" transform="translate(-3390.831 -4369.477)"/>
      <path id="Path_389" data-name="Path 389" d="M3444.431,4384.885q-.53-.129-1.223-.36a5.6,5.6,0,0,0-.557-.173l.108-2.561h.707l.2,1.885a2.089,2.089,0,0,0,.822.446,3.894,3.894,0,0,0,1.23.187,2.418,2.418,0,0,0,1.685-.532,1.887,1.887,0,0,0,.584-1.467,1.681,1.681,0,0,0-.306-1.022,2.664,2.664,0,0,0-.788-.706,14.355,14.355,0,0,0-1.339-.676,10.725,10.725,0,0,1-1.366-.719,3.452,3.452,0,0,1-.985-.971,2.692,2.692,0,0,1-.014-2.87,2.674,2.674,0,0,1,1.135-.957,3.913,3.913,0,0,1,1.665-.338,4.976,4.976,0,0,1,1.012.094q.441.094,1.121.3c.244.076.389.12.435.129l-.081,2.359h-.68l-.244-1.784a1.8,1.8,0,0,0-.632-.281,3.579,3.579,0,0,0-1-.136,2.352,2.352,0,0,0-1.535.439,1.592,1.592,0,0,0-.531,1.3,1.641,1.641,0,0,0,.286.985,2.474,2.474,0,0,0,.734.669q.448.273,1.386.733a17.259,17.259,0,0,1,1.529.841,3.6,3.6,0,0,1,.964.92,2.267,2.267,0,0,1,.415,1.374,2.785,2.785,0,0,1-.422,1.46,3.11,3.11,0,0,1-1.223,1.13,3.9,3.9,0,0,1-1.876.431A5.2,5.2,0,0,1,3444.431,4384.885Z" transform="translate(-3395.128 -4369.421)"/>
      <path id="Path_390" data-name="Path 390" d="M3456.226,4384.885q-.53-.129-1.223-.36a5.587,5.587,0,0,0-.558-.173l.109-2.561h.707l.2,1.885a2.091,2.091,0,0,0,.823.446,3.884,3.884,0,0,0,1.229.187,2.421,2.421,0,0,0,1.686-.532,1.888,1.888,0,0,0,.584-1.467,1.679,1.679,0,0,0-.306-1.022,2.651,2.651,0,0,0-.788-.706,14.2,14.2,0,0,0-1.339-.676,10.716,10.716,0,0,1-1.365-.719,3.438,3.438,0,0,1-.985-.971,2.69,2.69,0,0,1-.014-2.87,2.669,2.669,0,0,1,1.135-.957,3.91,3.91,0,0,1,1.665-.338,4.979,4.979,0,0,1,1.013.094q.441.094,1.121.3c.245.076.39.12.435.129l-.082,2.359h-.679l-.244-1.784a1.782,1.782,0,0,0-.632-.281,3.577,3.577,0,0,0-1-.136,2.354,2.354,0,0,0-1.536.439,1.593,1.593,0,0,0-.53,1.3,1.641,1.641,0,0,0,.285.985,2.491,2.491,0,0,0,.734.669q.449.273,1.387.733a17.2,17.2,0,0,1,1.528.841,3.6,3.6,0,0,1,.965.92,2.275,2.275,0,0,1,.414,1.374,2.79,2.79,0,0,1-.42,1.46,3.118,3.118,0,0,1-1.224,1.13,3.9,3.9,0,0,1-1.875.431A5.206,5.206,0,0,1,3456.226,4384.885Z" transform="translate(-3398.933 -4369.421)"/>
    </g>
  </g>
</svg>
