<svg xmlns="http://www.w3.org/2000/svg" width="59.298" height="46.997" viewBox="0 0 59.298 46.997">
  <path id="noun-house-4541990" d="M.865,26.69,29.909,2.317a.6.6,0,0,1,.779,0L59.732,26.69a.6.6,0,0,1,.214.42.612.612,0,0,1-.149.448l-2.259,2.521a.606.606,0,0,1-.839.061l-1.2-1V48.566a.6.6,0,0,1-.605.605H5.7a.6.6,0,0,1-.605-.605V29.135l-1.194,1a.606.606,0,0,1-.839-.061L.8,27.557a.615.615,0,0,1-.153-.448.6.6,0,0,1,.214-.42Zm5.442,1.428V47.961h5.3V34.782a.607.607,0,0,1,.605-.605h7.015a.6.6,0,0,1,.605.605V47.961h5.3V28.118c-3.457-2.9-9.415-7.9-9.415-7.9l-9.419,7.9Zm6.515,19.843V35.387h5.8V47.961h-5.8ZM19.3,17.218,30.583,26.69a.605.605,0,0,1,.218.42.633.633,0,0,1-.153.448l-2.259,2.521a.606.606,0,0,1-.839.061l-1.2-1V47.961H54.29V28.118L30.3,7.989l-11,9.23ZM38.933,34.782a.6.6,0,0,0-.605-.605H33.834a.607.607,0,0,0-.605.605v7.58a.607.607,0,0,0,.605.605h4.494a.6.6,0,0,0,.605-.605Zm8.479,0a.6.6,0,0,0-.605-.605H42.314a.607.607,0,0,0-.605.605v7.58a.607.607,0,0,0,.605.605h4.494a.6.6,0,0,0,.605-.605Zm-9.69.605v6.37H34.439v-6.37Zm8.479,0v6.37H42.919v-6.37ZM18.356,16.428l-1.69-1.416L30.3,3.571,58.478,27.214l-1.452,1.618L30.688,6.734a.6.6,0,0,0-.779,0L18.356,16.428Zm9.52,12.4L16.113,18.961a.614.614,0,0,0-.779,0L3.572,28.832,2.124,27.214,15.726,15.8l13.6,11.412-1.452,1.618Z" transform="translate(-0.65 -2.175)" fill="#8d2528" fill-rule="evenodd"/>
</svg>
