<svg xmlns="http://www.w3.org/2000/svg" width="60.883" height="54.079" viewBox="0 0 60.883 54.079">
  <g id="noun-builder-1147658" transform="translate(-12.94 -16.333)">
    <path id="Path_719" data-name="Path 719" d="M56.194,41.789h0l-11.117-.537a3.562,3.562,0,0,1-6.44.248.791.791,0,0,1,.7-1.156l2.236,0,0-.969H39.337a.791.791,0,0,1-.7-1.156,3.562,3.562,0,0,1,6.44.247l11.156-.538a1.932,1.932,0,1,1-.037,3.865Z" transform="translate(-5.341 -4.163)" fill="#8d2528"/>
    <path id="Path_720" data-name="Path 720" d="M12.94,26.133V69.62a.791.791,0,0,0,.791.791h59.3a.791.791,0,0,0,.791-.791V26.133a.791.791,0,0,0-.791-.791H58.447V17.124a.791.791,0,0,0-.791-.791H28.373a.791.791,0,0,0-.791.791v8.217H13.731A.791.791,0,0,0,12.94,26.133Zm43.924-.962h-27.7V17.916h27.7ZM14.523,47.551H34.212v5.224a.791.791,0,0,0,.791.791H51.759a.791.791,0,0,0,.791-.791V47.551H72.24V68.829H14.523Zm21.272,4.433V47.551H50.967v4.433H35.795ZM14.523,26.925H72.24V45.968H14.523Z" transform="translate(0)" fill="#8d2528"/>
  </g>
</svg>
