<svg xmlns="http://www.w3.org/2000/svg" width="51.591" height="49.072" viewBox="0 0 51.591 49.072">
  <g id="noun-budget-planning-986292" transform="translate(0.2 -1.3)">
    <path id="Path_721" data-name="Path 721" d="M51.312,6.341A5.025,5.025,0,0,0,46.271,1.3H12.56A5.06,5.06,0,0,0,7.6,6.341V19.967H1.612V40.525H7.6V43.6H-.2v2.127A4.414,4.414,0,0,0,4.211,50.37H37.292a5.043,5.043,0,0,0,5.12-5.041V26.9l8.979-.236ZM2.793,21.227H16.971V39.422H2.793V21.227Zm1.339,28.04A3.254,3.254,0,0,1,.9,45.8v-.945H32.251c0,.236-.079.394-.079.551a5.187,5.187,0,0,0,1.812,3.938H4.132ZM41.151,6.341V45.329a3.859,3.859,0,0,1-7.719,0,4.609,4.609,0,0,1,.158-1.024l.158-.63H8.779V40.682h9.373V20.046H8.779V6.42A3.866,3.866,0,0,1,12.639,2.56H42.963A4.989,4.989,0,0,0,41.151,6.341Zm1.181,19.376V6.341a3.859,3.859,0,0,1,7.719,0V25.559Z" transform="translate(0 0)" fill="#8d2528"/>
    <path id="Path_722" data-name="Path 722" d="M4.8,33.141H17.087V28.1H4.8ZM5.981,29.36h9.924v2.6H5.981Z" transform="translate(-1.062 -5.691)" fill="#8d2528"/>
    <rect id="Rectangle_2204" data-name="Rectangle 2204" width="8.192" height="1.181" transform="translate(6.63 35.957) rotate(-45)" fill="#8d2528"/>
    <path id="Path_723" data-name="Path 723" d="M14.912,42.7a1.812,1.812,0,1,0,1.812,1.812A1.887,1.887,0,0,0,14.912,42.7Zm0,2.442a.63.63,0,1,1,.63-.63A.678.678,0,0,1,14.912,45.142Z" transform="translate(-2.824 -8.792)" fill="#8d2528"/>
    <path id="Path_724" data-name="Path 724" d="M11.123,39.012a1.812,1.812,0,1,0-1.812,1.812A1.832,1.832,0,0,0,11.123,39.012Zm-2.363,0a.63.63,0,1,1,.63.63A.621.621,0,0,1,8.76,39.012Z" transform="translate(-1.635 -7.624)" fill="#8d2528"/>
    <path id="Path_725" data-name="Path 725" d="M34.033,19.552a1.387,1.387,0,0,1-.473-1.024H32.379a2.349,2.349,0,0,0,.945,1.89,2.661,2.661,0,0,0,1.5.709v1.654H36V21.127a2.661,2.661,0,0,0,1.5-.709,2.6,2.6,0,0,0,.945-1.89,2.349,2.349,0,0,0-.945-1.89,3.318,3.318,0,0,0-2.048-.788,2.139,2.139,0,0,1-1.339-.473,1.346,1.346,0,0,1,0-2.048,2.023,2.023,0,0,1,2.6,0,1.387,1.387,0,0,1,.473,1.024h1.181a2.349,2.349,0,0,0-.945-1.89,3.3,3.3,0,0,0-1.5-.709V10.1H34.742v1.654a2.661,2.661,0,0,0-1.5.709,2.6,2.6,0,0,0-.945,1.89,2.349,2.349,0,0,0,.945,1.89,3.318,3.318,0,0,0,2.048.788,2.139,2.139,0,0,1,1.339.473,1.346,1.346,0,0,1,0,2.048A2.023,2.023,0,0,1,34.033,19.552Z" transform="translate(-6.902 -1.869)" fill="#8d2528"/>
    <path id="Path_726" data-name="Path 726" d="M33.758,24.816A9.058,9.058,0,1,0,24.7,15.758,9.11,9.11,0,0,0,33.758,24.816Zm0-16.934a7.876,7.876,0,1,1-7.876,7.876A7.9,7.9,0,0,1,33.758,7.881Z" transform="translate(-5.288 -1.147)" fill="#8d2528"/>
    <rect id="Rectangle_2205" data-name="Rectangle 2205" width="16.541" height="1.181" transform="translate(21.145 37.847)" fill="#8d2528"/>
    <rect id="Rectangle_2206" data-name="Rectangle 2206" width="13.626" height="1.181" transform="translate(24.059 33.515)" fill="#8d2528"/>
    <rect id="Rectangle_2207" data-name="Rectangle 2207" width="10.633" height="1.181" transform="translate(26.974 29.183)" fill="#8d2528"/>
  </g>
</svg>
