<svg xmlns="http://www.w3.org/2000/svg" width="41.155" height="32.465" viewBox="0 0 41.155 32.465">
  <g id="noun-web-portal-4246326" transform="translate(0.2 0.2)">
    <g id="Group_3180" data-name="Group 3180" transform="translate(0 0)">
      <g id="Group_3176" data-name="Group 3176">
        <g id="Group_3172" data-name="Group 3172">
          <path id="Path_690" data-name="Path 690" d="M39.855,35.539H4.9a2.9,2.9,0,0,1-2.9-2.9V6.375a2.9,2.9,0,0,1,2.9-2.9H39.855a2.9,2.9,0,0,1,2.9,2.9V32.639A2.9,2.9,0,0,1,39.855,35.539ZM4.9,4.842A1.534,1.534,0,0,0,3.368,6.375V32.639A1.534,1.534,0,0,0,4.9,34.172H39.855a1.534,1.534,0,0,0,1.532-1.532V6.375a1.534,1.534,0,0,0-1.532-1.532Z" transform="translate(-2 -3.475)" fill="#8d2528" stroke="#8d2528" stroke-width="0.4"/>
        </g>
        <g id="Group_3173" data-name="Group 3173" transform="translate(0.004 24.109)">
          <path id="Path_691" data-name="Path 691" d="M42.12,40.1H2.643a.686.686,0,0,1,0-1.368H42.12a.686.686,0,0,1,0,1.368Z" transform="translate(-2.006 -38.733)" fill="#8d2528" stroke="#8d2528" stroke-width="0.4"/>
        </g>
        <g id="Group_3175" data-name="Group 3175" transform="translate(20.473 27.388)">
          <path id="Path_693" data-name="Path 693" d="M34.077,44.9H32.625a.684.684,0,0,1,0-1.368h1.453a.684.684,0,1,1,0,1.368Z" transform="translate(-31.941 -43.528)" fill="#8d2528" stroke="#8d2528" stroke-width="0.4"/>
        </g>
      </g>
      <g id="Group_3178" data-name="Group 3178" transform="translate(22.654 6.634)">
        <path id="Path_695" data-name="Path 695" d="M48.879,26.8a.681.681,0,0,1-.48-.2L44.335,22.6l-1.391,2.55a.683.683,0,0,1-1.25-.114l-3.6-10.958a.684.684,0,0,1,.867-.862l10.955,3.671a.684.684,0,0,1,.112,1.248L47.356,19.6l4.022,4.023a.684.684,0,0,1,0,.967L49.362,26.6A.682.682,0,0,1,48.879,26.8Zm-4.71-6.013a.685.685,0,0,1,.48.2l4.226,4.169L49.928,24.1l-4.183-4.184a.684.684,0,0,1,.155-1.083L48,17.684l-8.182-2.742L42.5,23.1l1.069-1.96a.683.683,0,0,1,.5-.349A.717.717,0,0,1,44.169,20.788Z" transform="translate(-38.056 -13.177)" fill="#8d2528" stroke="#8d2528" stroke-width="0.4"/>
      </g>
      <g id="Group_3179" data-name="Group 3179" transform="translate(4.41 4.553)">
        <path id="Path_696" data-name="Path 696" d="M22.994,16.551H9.133a.684.684,0,0,1-.684-.684v-5.05a.684.684,0,0,1,.684-.684H22.994a.684.684,0,0,1,.684.684v5.05A.684.684,0,0,1,22.994,16.551ZM9.817,15.183H22.31V11.5H9.817Z" transform="translate(-8.449 -10.133)" fill="#8d2528" stroke="#8d2528" stroke-width="0.4"/>
      </g>
    </g>
    <g id="Group_3181" data-name="Group 3181" transform="translate(4.254 12.951)">
      <path id="Path_697" data-name="Path 697" d="M22.58,23.783H8.9a.684.684,0,1,1,0-1.368H22.58a.684.684,0,0,1,0,1.368Z" transform="translate(-8.221 -22.415)" fill="#8d2528" stroke="#8d2528" stroke-width="0.4"/>
    </g>
    <g id="Group_3182" data-name="Group 3182" transform="translate(4.254 16.37)">
      <path id="Path_698" data-name="Path 698" d="M22.58,28.783H8.9a.684.684,0,1,1,0-1.368H22.58a.684.684,0,0,1,0,1.368Z" transform="translate(-8.221 -27.415)" fill="#8d2528" stroke="#8d2528" stroke-width="0.4"/>
    </g>
    <g id="Group_3183" data-name="Group 3183" transform="translate(4.254 19.789)">
      <path id="Path_699" data-name="Path 699" d="M22.58,33.783H8.9a.684.684,0,1,1,0-1.368H22.58a.684.684,0,0,1,0,1.368Z" transform="translate(-8.221 -32.415)" fill="#8d2528" stroke="#8d2528" stroke-width="0.4"/>
    </g>
  </g>
</svg>
