<svg xmlns="http://www.w3.org/2000/svg" width="54.888" height="54.893" viewBox="0 0 54.888 54.893">
  <g id="noun-checklist-3232576" transform="translate(-1.75 -1.75)">
    <path id="Path_727" data-name="Path 727" d="M32.755,11.447V6.778A.85.85,0,0,0,31.849,6H11.906A.85.85,0,0,0,11,6.778v4.669a.85.85,0,0,0,.906.778H31.849A.85.85,0,0,0,32.755,11.447Zm-1.813-.778H12.813V7.556H30.942Z" transform="translate(-0.842 -0.374)" fill="#8d2528" stroke="#fff" stroke-width="0.5"/>
    <path id="Path_728" data-name="Path 728" d="M7,17.906V28.784a.906.906,0,0,0,.906.906H18.784a.906.906,0,0,0,.906-.906V23.565l-1.813,1.813v2.5H8.813V18.813h7.939L18.565,17H7.906A.906.906,0,0,0,7,17.906Z" transform="translate(-0.468 -1.403)" fill="#8d2528" stroke="#fff" stroke-width="0.5"/>
    <path id="Path_729" data-name="Path 729" d="M21.264,17.293,14.653,23.9l-2.079-2.079-1.282,1.282,2.719,2.719a.906.906,0,0,0,1.282,0l7.252-7.252Z" transform="translate(-0.869 -1.43)" fill="#8d2528" stroke="#fff" stroke-width="0.5"/>
    <path id="Path_730" data-name="Path 730" d="M7,45.784a.906.906,0,0,0,.906.906H18.784a.906.906,0,0,0,.906-.906V40.565l-1.813,1.813v2.5H8.813V35.813h7.939L18.565,34H7.906A.906.906,0,0,0,7,34.906Z" transform="translate(-0.468 -1.821)" fill="#8d2528" stroke="#fff" stroke-width="0.5"/>
    <path id="Path_731" data-name="Path 731" d="M12.575,38.825l-1.282,1.282,2.719,2.719a.906.906,0,0,0,1.282,0l7.252-7.252-1.282-1.282L14.653,40.9Z" transform="translate(-0.869 -1.848)" fill="#8d2528" stroke="#fff" stroke-width="0.5"/>
    <rect id="Rectangle_2208" data-name="Rectangle 2208" width="11.74" height="1.304" transform="translate(24.176 22.472)" fill="#8d2528"/>
    <rect id="Rectangle_2209" data-name="Rectangle 2209" width="11.74" height="1" transform="translate(24.176 17.254)" fill="#8d2528"/>
    <rect id="Rectangle_2210" data-name="Rectangle 2210" width="5.218" height="1.304" transform="translate(24.176 34.079)" fill="#8d2528"/>
    <rect id="Rectangle_2211" data-name="Rectangle 2211" width="5.218" height="1" transform="translate(24.176 37.993)" fill="#8d2528"/>
    <path id="Path_732" data-name="Path 732" d="M3.813,54.575V3.813H38.259V23.172q.917-.321,1.813-.7V2.906A.906.906,0,0,0,39.165,2H2.906A.906.906,0,0,0,2,2.906V55.482a.906.906,0,0,0,.906.906H39.165a.9.9,0,0,0,.279-.056A22.027,22.027,0,0,1,37,54.575Z" fill="#8d2528" stroke="#fff" stroke-width="0.5"/>
    <path id="Path_733" data-name="Path 733" d="M58.574,28.631a31.65,31.65,0,0,1-11.457-3.525.906.906,0,0,0-.852,0,31.65,31.65,0,0,1-11.457,3.525.906.906,0,0,0-.808.9V40.269a19.777,19.777,0,0,0,12.342,18.2.906.906,0,0,0,.7,0,19.777,19.777,0,0,0,12.342-18.2V29.532a.906.906,0,0,0-.808-.9ZM57.568,40.269A17.955,17.955,0,0,1,46.691,56.647,17.955,17.955,0,0,1,35.813,40.27V30.335a33.433,33.433,0,0,0,10.878-3.4,33.425,33.425,0,0,0,10.878,3.4Z" transform="translate(-2.993 -2.151)" fill="#8d2528" stroke="#fff" stroke-width="0.5"/>
    <path id="Path_734" data-name="Path 734" d="M39.575,40.732l-1.282,1.282,5.439,5.439a.906.906,0,0,0,1.282,0L55.891,36.575,54.61,35.293,44.373,45.53Z" transform="translate(-3.394 -3.114)" fill="#8d2528"/>
    <rect id="Rectangle_2213" data-name="Rectangle 2213" width="14.349" height="1" transform="translate(15.045 48.952)" fill="#8d2528"/>
  </g>
</svg>
