<svg xmlns="http://www.w3.org/2000/svg" width="31.241" height="43.011" viewBox="0 0 31.241 43.011">
  <g id="noun-best-4087057" transform="translate(-5.511 -1.479)">
    <path id="Subtraction_23" data-name="Subtraction 23" d="M1677.646-425.01a2.447,2.447,0,0,1-1.14-.284l-.13-.082L1668.909-431l-7.454,5.579-.136.086a2.439,2.439,0,0,1-1.207.321,2.431,2.431,0,0,1-1.215-.326,2.437,2.437,0,0,1-1.217-2.1v-14.081l-.137-.145a15.673,15.673,0,0,1-2.01-18.806,15.712,15.712,0,0,1,13.374-7.547,15.616,15.616,0,0,1,4.208.579,15.672,15.672,0,0,1,11.417,15.077,15.567,15.567,0,0,1-4.262,10.7l-.136.145v14.081a2.44,2.44,0,0,1-1.217,2.1,2.435,2.435,0,0,1-1.216.328h-.057Zm-8.738-7.826a2.409,2.409,0,0,1,1.458.486l7.844,5.915-.068-13.18-.76.475c-.423.265-.747.453-1.05.61l-.193.112a9.907,9.907,0,0,1-1.045.5l-.352.147c-.318.132-.656.257-1.036.382l-.3.1a13.017,13.017,0,0,1-1.279.323l-.085.017-.074.044a.465.465,0,0,1-.183.017h-.037l-.983.147h-3.253l-.448-.122-.929-.139a1.273,1.273,0,0,0-.545-.105c-.417-.085-.831-.191-1.232-.314l-.3-.1c-.4-.134-.738-.259-1.036-.383l-.355-.148a10.007,10.007,0,0,1-1.041-.5l-.172-.1-.021-.012c-.3-.159-.629-.347-1.051-.611l-.765-.478v13.311l7.837-5.91A2.41,2.41,0,0,1,1668.908-432.836Zm0-33.223a13.647,13.647,0,0,0-7.7,2.371,13.646,13.646,0,0,0-5.035,6.292,13.644,13.644,0,0,0-.624,8.033,13.64,13.64,0,0,0,4,6.994c.225.211.479.45.73.653l.332.257.67.491.031.022a5.486,5.486,0,0,0,.543.3l.595.354.58.284.609.283.595.22.689.246.494.12a7.319,7.319,0,0,0,.82.2l.044.008h.309a13.234,13.234,0,0,0,2.317.205,13.256,13.256,0,0,0,2.318-.205h.308l.045-.008a7.346,7.346,0,0,0,.82-.2l.494-.12.684-.244.563-.207.638-.294.551-.267.644-.381a4.621,4.621,0,0,0,.5-.314c.193-.122.364-.249.529-.372l.053-.039,0,0,.089-.066.373-.284.013-.01c.246-.2.488-.427.721-.645l.011-.01a13.646,13.646,0,0,0,3.974-6.988,13.642,13.642,0,0,0-.632-8.015,13.637,13.637,0,0,0-5.021-6.278A13.644,13.644,0,0,0,1668.908-466.059Z" transform="translate(-1647.782 469.5)" fill="#8d2528"/>
    <path id="Subtraction_24" data-name="Subtraction 24" d="M1658.6-448.515a2.421,2.421,0,0,1-1.423-.459l-.005,0a2.51,2.51,0,0,1-.953-2.842l1.159-3.718-3.092-2.4a2.548,2.548,0,0,1-.87-2.844l0-.007a2.424,2.424,0,0,1,2.316-1.69h3.85l1.18-3.782,0-.008a2.444,2.444,0,0,1,2.335-1.751,2.444,2.444,0,0,1,2.335,1.751l1.167,3.746h3.8a2.428,2.428,0,0,1,2.3,1.69l0,.006a2.578,2.578,0,0,1-.868,2.858l-3.031,2.29,1.122,3.849,0,.014a2.51,2.51,0,0,1-.943,2.84,2.417,2.417,0,0,1-1.381.449,2.446,2.446,0,0,1-1.457-.5l-3.077-2.328-3.051,2.386A2.418,2.418,0,0,1,1658.6-448.515Zm4.471-4.626a2.419,2.419,0,0,1,1.46.486l4.008,2.938-1.485-4.947v-.005a2.57,2.57,0,0,1,.879-2.794l2.969-2.246v-.924h-3.964a2.446,2.446,0,0,1-2.331-1.739l-1.535-4.924-1.548,4.962,0,.006a2.451,2.451,0,0,1-2.335,1.739h-3.946v.926l3,2.244a2.574,2.574,0,0,1,.88,2.8l-1.495,4.8,3.977-2.821.011-.008A2.415,2.415,0,0,1,1663.072-453.141Z" transform="translate(-1641.947 475.424)" fill="#8d2528"/>
  </g>
</svg>
