<svg xmlns="http://www.w3.org/2000/svg" width="38.382" height="44.049" viewBox="0 0 38.382 44.049">
  <g id="noun-refund-4375161" transform="translate(-8.7 -2.619)">
    <path id="Subtraction_18" data-name="Subtraction 18" d="M1669.973-312.346a11.888,11.888,0,0,1-11.875-11.875,11.888,11.888,0,0,1,11.875-11.875,11.889,11.889,0,0,1,11.875,11.875A11.889,11.889,0,0,1,1669.973-312.346Zm0-21.528a9.663,9.663,0,0,0-9.652,9.652,9.663,9.663,0,0,0,9.652,9.652,9.663,9.663,0,0,0,9.652-9.652A9.663,9.663,0,0,0,1669.973-333.874Z" transform="translate(-1642.082 348.865)" fill="#8d2528"/>
    <path id="Subtraction_16" data-name="Subtraction 16" d="M1681.284-312.961a1.141,1.141,0,0,1-1.111-1.112,16.858,16.858,0,0,0-4.541-11.532,16.88,16.88,0,0,0-11.115-5.343l-.107-.008v1.832a.938.938,0,0,1-.934.915.852.852,0,0,1-.494-.159L1658.5-331.4a.847.847,0,0,1-.406-.712.939.939,0,0,1,.41-.8l4.473-3.028a.926.926,0,0,1,.515-.161.916.916,0,0,1,.914.916v1.957l.093.006a19.272,19.272,0,0,1,17.893,19.145A1.141,1.141,0,0,1,1681.284-312.961Z" transform="translate(-1635.314 338.716)" fill="#8d2528"/>
    <path id="Subtraction_17" data-name="Subtraction 17" d="M1676.951-312.961a.916.916,0,0,1-.914-.916v-1.958l-.093-.006a19.249,19.249,0,0,1-17.847-19.145,1.141,1.141,0,0,1,1.111-1.111,1.141,1.141,0,0,1,1.112,1.111,16.854,16.854,0,0,0,4.541,11.531,16.881,16.881,0,0,0,11.115,5.344l.107.008v-1.832a.939.939,0,0,1,.934-.916.847.847,0,0,1,.494.16l4.472,3.029a.916.916,0,0,1,.405.794.854.854,0,0,1-.444.715l-4.479,3.032A.926.926,0,0,1,1676.951-312.961Z" transform="translate(-1649.397 359.629)" fill="#8d2528"/>
    <path id="Subtraction_19" data-name="Subtraction 19" d="M1662.443-322.178h-1.3a.267.267,0,0,1-.273-.273v-1.3l-.09-.009a2.785,2.785,0,0,1-2.472-2.469.24.24,0,0,1,.064-.2l.011-.012.007-.014a.247.247,0,0,1,.191-.085h1.3a.255.255,0,0,1,.276.2.861.861,0,0,0,.843.687h1.165a1.322,1.322,0,0,0,1.357-1.16,1.169,1.169,0,0,0-.308-1.014,1.364,1.364,0,0,0-.956-.4h-.839a3.288,3.288,0,0,1-3.3-2.847,3.147,3.147,0,0,1,2.62-3.432l.083-.014v-1.3a.268.268,0,0,1,.274-.273h1.3a.267.267,0,0,1,.273.273v1.3l.09.009a2.787,2.787,0,0,1,2.473,2.469.241.241,0,0,1-.064.2l-.012.012-.007.014a.243.243,0,0,1-.19.085h-1.305a.254.254,0,0,1-.275-.2.863.863,0,0,0-.844-.686h-1.165a1.321,1.321,0,0,0-1.357,1.159,1.174,1.174,0,0,0,.308,1.015,1.365,1.365,0,0,0,.957.4h.978a3.551,3.551,0,0,1,2.353,1,3.036,3.036,0,0,1,.809,2.435,3.273,3.273,0,0,1-2.622,2.8l-.081.016v1.34A.267.267,0,0,1,1662.443-322.178Z" transform="translate(-1633.853 353.711)" fill="#8d2528"/>
  </g>
</svg>
