<svg xmlns="http://www.w3.org/2000/svg" width="57.702" height="55.802" viewBox="0 0 57.702 55.802">
  <g id="noun-building-3477615" transform="translate(-1.65 -1.65)">
    <path id="Path_735" data-name="Path 735" d="M43.326,18.53H25.877V2.918A.918.918,0,0,0,24.959,2H2.918A.918.918,0,0,0,2,2.918V56.183a.918.918,0,0,0,.918.918H43.326a.918.918,0,0,0,.918-.918V19.449A.918.918,0,0,0,43.326,18.53ZM3.837,3.837h20.2V55.265H21.286V47.918H22.2V46.081H5.673v1.837h.918v7.347H3.837ZM8.429,47.918H13.02v7.347H8.429Zm6.429,7.347V47.918h4.592v7.347Zm27.551,0H25.877v-34.9h16.53Z" fill="#8d2528" stroke="#fff" stroke-width="0.7"/>
    <path id="Path_736" data-name="Path 736" d="M61.02,45.51a5.51,5.51,0,1,0-6.429,5.428V60.2h1.837V50.937A5.516,5.516,0,0,0,61.02,45.51Zm-4.592,3.543V47.727L58,46.159l-1.3-1.3L55.51,46.048,54.323,44.86l-1.3,1.3,1.568,1.568v1.326a3.673,3.673,0,1,1,1.837,0Z" transform="translate(-1.919 -3.102)" fill="#8d2528" stroke="#fff" stroke-width="0.5"/>
    <g id="Group_3204" data-name="Group 3204" transform="translate(0.827 1)">
      <rect id="Rectangle_2214" data-name="Rectangle 2214" width="1.107" height="1.107" transform="translate(6.173 6.173)" fill="#8d2528"/>
      <rect id="Rectangle_2219" data-name="Rectangle 2219" width="1.107" height="2.214" transform="translate(6.173 9.494)" fill="#8d2528"/>
      <rect id="Rectangle_2224" data-name="Rectangle 2224" width="1.107" height="2.214" transform="translate(6.173 12.816)" fill="#8d2528"/>
      <rect id="Rectangle_2229" data-name="Rectangle 2229" width="1.107" height="1.107" transform="translate(6.173 17.245)" fill="#8d2528"/>
      <rect id="Rectangle_2234" data-name="Rectangle 2234" width="1.107" height="1.107" transform="translate(6.173 20.566)" fill="#8d2528"/>
      <rect id="Rectangle_2239" data-name="Rectangle 2239" width="1.107" height="2.214" transform="translate(6.173 23.887)" fill="#8d2528"/>
      <rect id="Rectangle_2244" data-name="Rectangle 2244" width="1.107" height="2.214" transform="translate(6.173 27.208)" fill="#8d2528"/>
      <rect id="Rectangle_2249" data-name="Rectangle 2249" width="1.107" height="1.107" transform="translate(6.173 31.637)" fill="#8d2528"/>
      <rect id="Rectangle_2254" data-name="Rectangle 2254" width="1.107" height="2.214" transform="translate(6.173 34.958)" fill="#8d2528"/>
      <rect id="Rectangle_2259" data-name="Rectangle 2259" width="1.107" height="2.214" transform="translate(6.173 38.28)" fill="#8d2528"/>
    </g>
    <g id="Group_3205" data-name="Group 3205" transform="translate(1.506 1)">
      <rect id="Rectangle_2215" data-name="Rectangle 2215" width="1.145" height="1.107" transform="translate(9.494 6.173)" fill="#8d2528"/>
      <rect id="Rectangle_2220" data-name="Rectangle 2220" width="1.145" height="2.214" transform="translate(9.494 9.494)" fill="#8d2528"/>
      <rect id="Rectangle_2225" data-name="Rectangle 2225" width="1.145" height="2.214" transform="translate(9.494 12.816)" fill="#8d2528"/>
      <rect id="Rectangle_2230" data-name="Rectangle 2230" width="1.145" height="1.107" transform="translate(9.494 17.245)" fill="#8d2528"/>
      <rect id="Rectangle_2235" data-name="Rectangle 2235" width="1.145" height="1.107" transform="translate(9.494 20.566)" fill="#8d2528"/>
      <rect id="Rectangle_2240" data-name="Rectangle 2240" width="1.145" height="2.214" transform="translate(9.494 23.887)" fill="#8d2528"/>
      <rect id="Rectangle_2245" data-name="Rectangle 2245" width="1.145" height="2.214" transform="translate(9.494 27.208)" fill="#8d2528"/>
      <rect id="Rectangle_2250" data-name="Rectangle 2250" width="1.145" height="1.107" transform="translate(9.494 31.637)" fill="#8d2528"/>
      <rect id="Rectangle_2255" data-name="Rectangle 2255" width="1.145" height="2.214" transform="translate(9.494 34.958)" fill="#8d2528"/>
      <rect id="Rectangle_2260" data-name="Rectangle 2260" width="1.145" height="2.214" transform="translate(9.494 38.28)" fill="#8d2528"/>
    </g>
    <g id="Group_3202" data-name="Group 3202" transform="translate(2.184 1)">
      <rect id="Rectangle_2216" data-name="Rectangle 2216" width="1.126" height="1.107" transform="translate(13.816 6.173)" fill="#8d2528"/>
      <rect id="Rectangle_2221" data-name="Rectangle 2221" width="1.126" height="2.214" transform="translate(13.816 9.494)" fill="#8d2528"/>
      <rect id="Rectangle_2226" data-name="Rectangle 2226" width="1.126" height="2.214" transform="translate(13.816 12.816)" fill="#8d2528"/>
      <rect id="Rectangle_2231" data-name="Rectangle 2231" width="1.126" height="1.107" transform="translate(13.816 17.245)" fill="#8d2528"/>
      <rect id="Rectangle_2236" data-name="Rectangle 2236" width="1.126" height="1.107" transform="translate(13.816 20.566)" fill="#8d2528"/>
      <rect id="Rectangle_2241" data-name="Rectangle 2241" width="1.126" height="2.214" transform="translate(13.816 23.887)" fill="#8d2528"/>
      <rect id="Rectangle_2246" data-name="Rectangle 2246" width="1.126" height="2.214" transform="translate(13.816 27.208)" fill="#8d2528"/>
      <rect id="Rectangle_2251" data-name="Rectangle 2251" width="1.126" height="1.107" transform="translate(13.816 31.637)" fill="#8d2528"/>
      <rect id="Rectangle_2256" data-name="Rectangle 2256" width="1.126" height="2.214" transform="translate(13.816 34.958)" fill="#8d2528"/>
      <rect id="Rectangle_2261" data-name="Rectangle 2261" width="1.126" height="2.214" transform="translate(13.816 38.28)" fill="#8d2528"/>
    </g>
    <g id="Group_3206" data-name="Group 3206" transform="translate(2.756 1)">
      <rect id="Rectangle_2217" data-name="Rectangle 2217" width="1.107" height="1.107" transform="translate(17.244 6.173)" fill="#8d2528"/>
      <rect id="Rectangle_2222" data-name="Rectangle 2222" width="1.107" height="2.214" transform="translate(17.244 9.494)" fill="#8d2528"/>
      <rect id="Rectangle_2227" data-name="Rectangle 2227" width="1.107" height="2.214" transform="translate(17.244 12.816)" fill="#8d2528"/>
      <rect id="Rectangle_2232" data-name="Rectangle 2232" width="1.107" height="1.107" transform="translate(17.244 17.245)" fill="#8d2528"/>
      <rect id="Rectangle_2237" data-name="Rectangle 2237" width="1.107" height="1.107" transform="translate(17.244 20.566)" fill="#8d2528"/>
      <rect id="Rectangle_2242" data-name="Rectangle 2242" width="1.107" height="2.214" transform="translate(17.244 23.887)" fill="#8d2528"/>
      <rect id="Rectangle_2247" data-name="Rectangle 2247" width="1.107" height="2.214" transform="translate(17.244 27.208)" fill="#8d2528"/>
      <rect id="Rectangle_2252" data-name="Rectangle 2252" width="1.107" height="1.107" transform="translate(17.244 31.637)" fill="#8d2528"/>
      <rect id="Rectangle_2257" data-name="Rectangle 2257" width="1.107" height="2.214" transform="translate(17.244 34.958)" fill="#8d2528"/>
      <rect id="Rectangle_2262" data-name="Rectangle 2262" width="1.107" height="2.214" transform="translate(17.244 38.28)" fill="#8d2528"/>
    </g>
    <rect id="Rectangle_2265" data-name="Rectangle 2265" width="13.286" height="1.107" transform="translate(27.209 24.372)" fill="#8d2528"/>
    <rect id="Rectangle_2266" data-name="Rectangle 2266" width="13.286" height="1" transform="translate(27.209 28.372)" fill="#8d2528"/>
    <rect id="Rectangle_2267" data-name="Rectangle 2267" width="13.286" height="1" transform="translate(27.209 32.372)" fill="#8d2528"/>
    <rect id="Rectangle_2268" data-name="Rectangle 2268" width="13.286" height="1.107" transform="translate(27.209 36.371)" fill="#8d2528"/>
    <rect id="Rectangle_2269" data-name="Rectangle 2269" width="13.286" height="1" transform="translate(27.209 40.372)" fill="#8d2528"/>
    <rect id="Rectangle_2270" data-name="Rectangle 2270" width="13.286" height="1" transform="translate(27.209 44.372)" fill="#8d2528"/>
    <rect id="Rectangle_2271" data-name="Rectangle 2271" width="13.286" height="1.107" transform="translate(27.209 48.371)" fill="#8d2528"/>
  </g>
</svg>
