<svg xmlns="http://www.w3.org/2000/svg" width="36.804" height="34.068" viewBox="0 0 36.804 34.068">
  <g id="noun-flexibility-4211539" transform="translate(-3 -6.475)">
    <path id="Subtraction_20" data-name="Subtraction 20" d="M1658.764-259.662h0c-.336-.282-.7-.582-1.083-.866v-7.409h-3.4a.834.834,0,0,1-.711-.447.733.733,0,0,1,.1-.768l4.539-5.612a.736.736,0,0,1,.584-.26.737.737,0,0,1,.585.26l4.5,5.611.016.02a.717.717,0,0,1,.085.758.83.83,0,0,1-.706.439h-3.406v7.408c-.4.29-.766.581-1.1.867Z" transform="translate(-1637.37 281.5)" fill="#8d2528"/>
    <path id="Subtraction_22" data-name="Subtraction 22" d="M1671.9-252.544a1.093,1.093,0,0,1-1.092-1.092v-6.128a8.926,8.926,0,0,0-8.9-8.936h-1.256v3.4a.74.74,0,0,1-.413.695.907.907,0,0,1-.36.078.715.715,0,0,1-.476-.162l-5.618-4.5-.013-.01a.719.719,0,0,1-.278-.595.831.831,0,0,1,.3-.61l5.6-4.451.022-.018a.636.636,0,0,1,.428-.154.839.839,0,0,1,.329.069.832.832,0,0,1,.439.706v3.406h1.256a11.112,11.112,0,0,1,11.12,11.08v6.128A1.093,1.093,0,0,1,1671.9-252.544Z" transform="translate(-1650.5 293.088)" fill="#8d2528"/>
    <path id="Subtraction_21" data-name="Subtraction 21" d="M1663.145-264.562a.789.789,0,0,1-.327-.063.832.832,0,0,1-.448-.71v-3.4h-1.255a8.776,8.776,0,0,0-6.221,2.549,15.974,15.974,0,0,0-1.082-1.931,11.1,11.1,0,0,1,7.3-2.723h1.255v-3.406a.738.738,0,0,1,.424-.7l.016-.008a.674.674,0,0,1,.3-.068.77.77,0,0,1,.478.172l5.612,4.457.011.009a.759.759,0,0,1,.277.595.834.834,0,0,1-.3.61l-5.564,4.451-.008.007A.715.715,0,0,1,1663.145-264.562Z" transform="translate(-1629.685 293.088)" fill="#8d2528"/>
  </g>
</svg>
