<svg xmlns="http://www.w3.org/2000/svg" width="29.425" height="29.426" viewBox="0 0 29.425 29.426">
  <path id="np_phone_2031935_000000" d="M10.062,16.406a5.412,5.412,0,0,1,4.3-6.507c.551.221,2.1,1.985,3.75,4.411,1.764,2.426,1.875,3.418,1.214,4.079-.551.772-1.543,2.536-1.543,2.536a2.193,2.193,0,0,0,.331,1.654,81.228,81.228,0,0,0,8.711,8.711,2.2,2.2,0,0,0,1.654.331s1.654-1.1,2.426-1.654c.772-.661,1.764-.551,4.19,1.214s4.19,3.2,4.3,3.75S38.07,40,32.888,39.232c-8.6-1.324-21.5-14.225-22.827-22.827Z" transform="translate(-9.975 -9.894)" fill="#8d2528" fill-rule="evenodd"/>
</svg>
